<svg width="500" height="400" viewBox="0 0 500 400" fill="none" xmlns="http://www.w3.org/2000/svg">
<path d="M330.703 344.297C330.703 364.062 314.844 379.922 295.078 379.922C275.313 379.922 259.297 364.062 259.297 344.297C259.297 324.531 275.391 308.516 295.078 308.516C314.922 308.516 330.703 324.531 330.703 344.297ZM132.344 308.516C112.578 308.516 96.7188 324.609 96.7188 344.297C96.7188 363.984 112.578 379.922 132.344 379.922C152.109 379.922 168.125 364.062 168.125 344.297C168.125 324.531 152.109 308.516 132.344 308.516ZM360.234 97.5781C124.141 97.5781 63.9844 87.5781 0 20.0781C26.875 60.4688 41.6406 136.406 291.484 132.734C551.875 128.828 393.047 200 346.797 280.312C492.656 150.078 596.328 97.5781 360.234 97.5781Z" fill="#FFC800"/>
</svg>
