<svg width="500" height="458" viewBox="0 0 500 458" fill="none" xmlns="http://www.w3.org/2000/svg">
<path d="M330.703 344.297C330.703 364.062 314.844 379.922 295.078 379.922C275.313 379.922 259.297 364.062 259.297 344.297C259.297 324.531 275.391 308.516 295.078 308.516C314.922 308.516 330.703 324.531 330.703 344.297ZM132.344 308.516C112.578 308.516 96.7188 324.609 96.7188 344.297C96.7188 363.984 112.578 379.922 132.344 379.922C152.109 379.922 168.125 364.062 168.125 344.297C168.125 324.531 152.109 308.516 132.344 308.516ZM360.234 97.5781C124.141 97.5781 63.9844 87.5781 0 20.0781C26.875 60.4688 41.6406 136.406 291.484 132.734C551.875 128.828 393.047 200 346.797 280.312C492.656 150.078 596.328 97.5781 360.234 97.5781Z" fill="#FFC800"/>
<circle cx="8" cy="429" r="8" fill="#FFC800"/>
<circle cx="45" cy="429" r="8" fill="#FFC800"/>
<circle cx="82" cy="429" r="8" fill="#FFC800"/>
<circle cx="119" cy="429" r="8" fill="#FFC800"/>
<path d="M200.33 423.739H191.807C191.693 422.864 191.46 422.074 191.108 421.369C190.756 420.665 190.29 420.062 189.71 419.562C189.131 419.062 188.443 418.682 187.648 418.42C186.864 418.148 185.994 418.011 185.04 418.011C183.347 418.011 181.886 418.426 180.659 419.256C179.443 420.085 178.506 421.284 177.847 422.852C177.199 424.42 176.875 426.318 176.875 428.545C176.875 430.864 177.205 432.807 177.864 434.375C178.534 435.932 179.472 437.108 180.676 437.903C181.892 438.687 183.33 439.08 184.989 439.08C185.92 439.08 186.767 438.96 187.528 438.722C188.301 438.483 188.977 438.136 189.557 437.682C190.148 437.216 190.631 436.653 191.006 435.994C191.392 435.324 191.659 434.568 191.807 433.727L200.33 433.778C200.182 435.324 199.733 436.847 198.983 438.347C198.244 439.847 197.227 441.216 195.932 442.455C194.636 443.682 193.057 444.659 191.193 445.386C189.341 446.114 187.216 446.477 184.818 446.477C181.659 446.477 178.83 445.784 176.33 444.398C173.841 443 171.875 440.966 170.432 438.295C168.989 435.625 168.267 432.375 168.267 428.545C168.267 424.705 169 421.449 170.466 418.778C171.932 416.108 173.915 414.08 176.415 412.693C178.915 411.307 181.716 410.614 184.818 410.614C186.932 410.614 188.886 410.909 190.682 411.5C192.477 412.08 194.057 412.932 195.42 414.057C196.784 415.17 197.892 416.54 198.744 418.165C199.597 419.79 200.125 421.648 200.33 423.739ZM217.379 446.494C214.629 446.494 212.266 445.932 210.288 444.807C208.322 443.67 206.805 442.091 205.737 440.068C204.68 438.034 204.152 435.676 204.152 432.994C204.152 430.301 204.68 427.943 205.737 425.92C206.805 423.886 208.322 422.307 210.288 421.182C212.266 420.045 214.629 419.477 217.379 419.477C220.129 419.477 222.487 420.045 224.453 421.182C226.43 422.307 227.947 423.886 229.004 425.92C230.072 427.943 230.607 430.301 230.607 432.994C230.607 435.676 230.072 438.034 229.004 440.068C227.947 442.091 226.43 443.67 224.453 444.807C222.487 445.932 220.129 446.494 217.379 446.494ZM217.43 440.205C218.43 440.205 219.277 439.898 219.97 439.284C220.663 438.67 221.192 437.818 221.555 436.727C221.93 435.636 222.118 434.375 222.118 432.943C222.118 431.489 221.93 430.216 221.555 429.125C221.192 428.034 220.663 427.182 219.97 426.568C219.277 425.955 218.43 425.648 217.43 425.648C216.396 425.648 215.521 425.955 214.805 426.568C214.101 427.182 213.561 428.034 213.186 429.125C212.822 430.216 212.641 431.489 212.641 432.943C212.641 434.375 212.822 435.636 213.186 436.727C213.561 437.818 214.101 438.67 214.805 439.284C215.521 439.898 216.396 440.205 217.43 440.205ZM234.876 446V419.818H242.803V424.625H243.092C243.638 423.034 244.558 421.778 245.854 420.858C247.149 419.938 248.695 419.477 250.49 419.477C252.308 419.477 253.865 419.943 255.161 420.875C256.456 421.807 257.28 423.057 257.632 424.625H257.905C258.393 423.068 259.348 421.824 260.768 420.892C262.189 419.949 263.865 419.477 265.797 419.477C268.274 419.477 270.286 420.273 271.831 421.864C273.376 423.443 274.149 425.614 274.149 428.375V446H265.814V430.284C265.814 428.977 265.479 427.983 264.808 427.301C264.138 426.608 263.268 426.261 262.2 426.261C261.053 426.261 260.149 426.636 259.49 427.386C258.842 428.125 258.518 429.119 258.518 430.369V446H250.507V430.199C250.507 428.983 250.178 428.023 249.518 427.318C248.859 426.614 247.99 426.261 246.911 426.261C246.183 426.261 245.541 426.437 244.984 426.79C244.428 427.131 243.99 427.619 243.672 428.256C243.365 428.892 243.212 429.642 243.212 430.506V446H234.876ZM279.314 455.818V419.818H287.564V424.301H287.82C288.161 423.506 288.643 422.739 289.268 422C289.905 421.261 290.712 420.659 291.689 420.193C292.678 419.716 293.859 419.477 295.234 419.477C297.053 419.477 298.751 419.955 300.331 420.909C301.922 421.864 303.206 423.335 304.183 425.324C305.161 427.312 305.649 429.847 305.649 432.926C305.649 435.892 305.178 438.375 304.234 440.375C303.303 442.375 302.041 443.875 300.45 444.875C298.871 445.875 297.115 446.375 295.183 446.375C293.865 446.375 292.723 446.159 291.757 445.727C290.791 445.295 289.979 444.727 289.32 444.023C288.672 443.318 288.172 442.562 287.82 441.756H287.649V455.818H279.314ZM287.479 432.909C287.479 434.318 287.666 435.545 288.041 436.591C288.428 437.636 288.979 438.449 289.695 439.028C290.422 439.597 291.291 439.881 292.303 439.881C293.325 439.881 294.195 439.597 294.911 439.028C295.626 438.449 296.166 437.636 296.53 436.591C296.905 435.545 297.092 434.318 297.092 432.909C297.092 431.5 296.905 430.278 296.53 429.244C296.166 428.21 295.626 427.409 294.911 426.841C294.206 426.273 293.337 425.989 292.303 425.989C291.28 425.989 290.411 426.267 289.695 426.824C288.979 427.381 288.428 428.176 288.041 429.21C287.666 430.244 287.479 431.477 287.479 432.909ZM310.017 446V419.818H318.114V424.591H318.386C318.864 422.864 319.642 421.58 320.722 420.739C321.801 419.886 323.057 419.46 324.489 419.46C324.875 419.46 325.273 419.489 325.682 419.545C326.091 419.591 326.472 419.665 326.824 419.767V427.011C326.426 426.875 325.903 426.767 325.256 426.688C324.619 426.608 324.051 426.568 323.551 426.568C322.563 426.568 321.67 426.79 320.875 427.233C320.091 427.665 319.472 428.273 319.017 429.057C318.574 429.83 318.352 430.739 318.352 431.784V446H310.017ZM336.616 446.443C334.946 446.443 333.463 446.165 332.168 445.608C330.884 445.04 329.866 444.187 329.116 443.051C328.378 441.903 328.009 440.466 328.009 438.739C328.009 437.284 328.264 436.057 328.776 435.057C329.287 434.057 329.991 433.244 330.889 432.619C331.787 431.994 332.821 431.523 333.991 431.205C335.162 430.875 336.412 430.653 337.741 430.54C339.23 430.403 340.429 430.261 341.338 430.114C342.247 429.955 342.906 429.733 343.315 429.449C343.736 429.153 343.946 428.739 343.946 428.205V428.119C343.946 427.244 343.645 426.568 343.043 426.091C342.44 425.614 341.628 425.375 340.605 425.375C339.503 425.375 338.616 425.614 337.946 426.091C337.276 426.568 336.849 427.227 336.668 428.068L328.98 427.795C329.207 426.205 329.793 424.784 330.736 423.534C331.69 422.273 332.997 421.284 334.656 420.568C336.327 419.841 338.332 419.477 340.673 419.477C342.344 419.477 343.884 419.676 345.293 420.074C346.702 420.46 347.929 421.028 348.974 421.778C350.02 422.517 350.827 423.426 351.395 424.506C351.974 425.585 352.264 426.818 352.264 428.205V446H344.423V442.352H344.219C343.753 443.239 343.156 443.989 342.429 444.602C341.713 445.216 340.866 445.676 339.889 445.983C338.923 446.29 337.832 446.443 336.616 446.443ZM339.19 440.989C340.088 440.989 340.895 440.807 341.611 440.443C342.338 440.08 342.918 439.58 343.349 438.943C343.781 438.295 343.997 437.545 343.997 436.693V434.205C343.759 434.33 343.469 434.443 343.128 434.545C342.798 434.648 342.435 434.744 342.037 434.835C341.639 434.926 341.23 435.006 340.81 435.074C340.389 435.142 339.986 435.205 339.599 435.261C338.815 435.386 338.145 435.58 337.588 435.841C337.043 436.102 336.622 436.443 336.327 436.864C336.043 437.273 335.901 437.761 335.901 438.33C335.901 439.193 336.207 439.852 336.821 440.307C337.446 440.761 338.236 440.989 339.19 440.989ZM399.361 423.739H390.838C390.724 422.864 390.491 422.074 390.139 421.369C389.787 420.665 389.321 420.062 388.741 419.562C388.162 419.062 387.474 418.682 386.679 418.42C385.895 418.148 385.026 418.011 384.071 418.011C382.378 418.011 380.918 418.426 379.69 419.256C378.474 420.085 377.537 421.284 376.878 422.852C376.23 424.42 375.906 426.318 375.906 428.545C375.906 430.864 376.236 432.807 376.895 434.375C377.565 435.932 378.503 437.108 379.707 437.903C380.923 438.687 382.361 439.08 384.02 439.08C384.952 439.08 385.798 438.96 386.56 438.722C387.332 438.483 388.009 438.136 388.588 437.682C389.179 437.216 389.662 436.653 390.037 435.994C390.423 435.324 390.69 434.568 390.838 433.727L399.361 433.778C399.213 435.324 398.764 436.847 398.014 438.347C397.276 439.847 396.259 441.216 394.963 442.455C393.668 443.682 392.088 444.659 390.224 445.386C388.372 446.114 386.247 446.477 383.849 446.477C380.69 446.477 377.861 445.784 375.361 444.398C372.872 443 370.906 440.966 369.463 438.295C368.02 435.625 367.298 432.375 367.298 428.545C367.298 424.705 368.031 421.449 369.497 418.778C370.963 416.108 372.946 414.08 375.446 412.693C377.946 411.307 380.747 410.614 383.849 410.614C385.963 410.614 387.918 410.909 389.713 411.5C391.509 412.08 393.088 412.932 394.452 414.057C395.815 415.17 396.923 416.54 397.776 418.165C398.628 419.79 399.156 421.648 399.361 423.739ZM416.428 446.494C413.689 446.494 411.325 445.955 409.337 444.875C407.359 443.784 405.837 442.233 404.768 440.222C403.712 438.199 403.183 435.795 403.183 433.011C403.183 430.307 403.717 427.943 404.786 425.92C405.854 423.886 407.359 422.307 409.303 421.182C411.246 420.045 413.536 419.477 416.172 419.477C418.036 419.477 419.74 419.767 421.286 420.347C422.831 420.926 424.166 421.784 425.291 422.92C426.416 424.057 427.291 425.46 427.916 427.131C428.541 428.79 428.854 430.693 428.854 432.841V434.92H406.098V430.08H421.098C421.087 429.193 420.876 428.403 420.467 427.71C420.058 427.017 419.496 426.477 418.78 426.091C418.075 425.693 417.263 425.494 416.342 425.494C415.411 425.494 414.575 425.705 413.837 426.125C413.098 426.534 412.513 427.097 412.081 427.812C411.649 428.517 411.422 429.318 411.399 430.216V435.142C411.399 436.21 411.609 437.148 412.03 437.955C412.45 438.75 413.047 439.369 413.82 439.812C414.592 440.256 415.513 440.477 416.581 440.477C417.32 440.477 417.99 440.375 418.592 440.17C419.195 439.966 419.712 439.665 420.143 439.267C420.575 438.869 420.899 438.381 421.115 437.801L428.768 438.023C428.45 439.739 427.751 441.233 426.672 442.506C425.604 443.767 424.2 444.75 422.462 445.455C420.723 446.148 418.712 446.494 416.428 446.494ZM433.111 446V419.818H441.207V424.591H441.48C441.957 422.864 442.736 421.58 443.815 420.739C444.895 419.886 446.151 419.46 447.582 419.46C447.969 419.46 448.366 419.489 448.776 419.545C449.185 419.591 449.565 419.665 449.918 419.767V427.011C449.52 426.875 448.997 426.767 448.349 426.688C447.713 426.608 447.145 426.568 446.645 426.568C445.656 426.568 444.764 426.79 443.969 427.233C443.185 427.665 442.565 428.273 442.111 429.057C441.668 429.83 441.446 430.739 441.446 431.784V446H433.111ZM469.311 419.818V425.955H452.794V419.818H469.311ZM456.254 413.545H464.589V437.767C464.589 438.278 464.669 438.693 464.828 439.011C464.999 439.318 465.243 439.54 465.561 439.676C465.879 439.801 466.26 439.864 466.703 439.864C467.021 439.864 467.357 439.835 467.709 439.778C468.072 439.71 468.345 439.653 468.527 439.608L469.788 445.625C469.391 445.739 468.828 445.881 468.101 446.051C467.385 446.222 466.527 446.33 465.527 446.375C463.572 446.466 461.896 446.239 460.499 445.693C459.112 445.136 458.05 444.273 457.311 443.102C456.584 441.932 456.232 440.46 456.254 438.688V413.545ZM480.945 446.443C479.274 446.443 477.791 446.165 476.496 445.608C475.212 445.04 474.195 444.187 473.445 443.051C472.706 441.903 472.337 440.466 472.337 438.739C472.337 437.284 472.592 436.057 473.104 435.057C473.615 434.057 474.32 433.244 475.217 432.619C476.115 431.994 477.149 431.523 478.32 431.205C479.49 430.875 480.74 430.653 482.07 430.54C483.558 430.403 484.757 430.261 485.666 430.114C486.575 429.955 487.234 429.733 487.643 429.449C488.064 429.153 488.274 428.739 488.274 428.205V428.119C488.274 427.244 487.973 426.568 487.371 426.091C486.768 425.614 485.956 425.375 484.933 425.375C483.831 425.375 482.945 425.614 482.274 426.091C481.604 426.568 481.178 427.227 480.996 428.068L473.308 427.795C473.536 426.205 474.121 424.784 475.064 423.534C476.018 422.273 477.325 421.284 478.984 420.568C480.655 419.841 482.661 419.477 485.001 419.477C486.672 419.477 488.212 419.676 489.621 420.074C491.03 420.46 492.257 421.028 493.303 421.778C494.348 422.517 495.155 423.426 495.723 424.506C496.303 425.585 496.592 426.818 496.592 428.205V446H488.751V442.352H488.547C488.081 443.239 487.484 443.989 486.757 444.602C486.041 445.216 485.195 445.676 484.217 445.983C483.251 446.29 482.161 446.443 480.945 446.443ZM483.518 440.989C484.416 440.989 485.223 440.807 485.939 440.443C486.666 440.08 487.246 439.58 487.678 438.943C488.109 438.295 488.325 437.545 488.325 436.693V434.205C488.087 434.33 487.797 434.443 487.456 434.545C487.126 434.648 486.763 434.744 486.365 434.835C485.967 434.926 485.558 435.006 485.138 435.074C484.717 435.142 484.314 435.205 483.928 435.261C483.143 435.386 482.473 435.58 481.916 435.841C481.371 436.102 480.95 436.443 480.655 436.864C480.371 437.273 480.229 437.761 480.229 438.33C480.229 439.193 480.536 439.852 481.149 440.307C481.774 440.761 482.564 440.989 483.518 440.989Z" fill="#171717"/>
</svg>
